# xmcd
#
# Track frame offsets:
#	150
#	16475
#	40388
#	58175
#	77850
#	93525
#	112463
#	131738
#	152550
#	170363
#
# Disc length: 2478 seconds
#
# Revision: 0
# Processed by: cddbd v1.4PL0 Copyright (c) Steve Scherf et al.
# Submitted via: dBpowerAMP V4.0
#
DISCID=8a09ac0a
DTITLE=Charlie Daniels Band - Roarin'
DYEAR=1900
DGENRE=Country
TTITLE0=The Devil Went Down To Georgia
TTITLE1=Uneasy Rider
TTITLE2=Money
TTITLE3=Midnight Wind
TTITLE4=Boogie Woogie Fiddle Country Blues
TTITLE5=Good Ole Country Boy
TTITLE6=The Legend Of Wooley Swamp
TTITLE7=We Had It All One Time
TTITLE8=Ain't No Ramblers Anymore
TTITLE9=Tomorrow's Gonna Be Another Day  (*Bonus Track)
EXTD=Charlie Daniels Band    Roarin'
EXTT0=
EXTT1=
EXTT2=
EXTT3=
EXTT4=
EXTT5=
EXTT6=
EXTT7=
EXTT8=
EXTT9=
PLAYORDER=
